<svg xmlns="http://www.w3.org/2000/svg" xmlns:xlink="http://www.w3.org/1999/xlink" viewBox="0 0 106 36"><defs><path id="c" fill="none" stroke="#333" stroke-linecap="square" stroke-miterlimit="3" stroke-width="6" d="M2 2h26v26h-2.89v5.78L16.44 28H2V2Z" mask="url(#a)"/></defs><defs><clipPath id="b"><path d="M0 0h106v36H0z"/></clipPath></defs><g clip-path="url(#b)"><path fill="none" d="M0 0h106v36H0z"/><g fill="none" stroke-linecap="round" stroke-linejoin="round"><path stroke="#0A8" stroke-width="2" d="M41 29v6l6-6m7 6v-6l6 6v-6m12 0v6l3-3v3l3-3v-3m-27 6v-6l-6 6h3m37 0v-6l-6 6h3m21 0h-6v-6h6m-15 6v-6h6v3h-3l3 3m-25-6h-6v6h6v-3h-3m34 0h3"/><path stroke="#666" stroke-miterlimit="3" d="M32.5 29.5v3h1a1 1 0 0 0 1-1h0a1 1 0 0 0-1-1h-1m4 4h0a1 1 0 0 0 1-1v-3 2h-1a1 1 0 0 1-1-1v-1"/></g><path fill="#FFF" stroke="#FFF" stroke-linecap="round" stroke-linejoin="round" stroke-miterlimit="3" stroke-width="4" d="M2 2h26v26h-2.89v5.78L16.44 28H2V2Z"/><path fill="none" d="M2 2h26v26h-2.89v5.78L16.44 28H2V2Z"/><path fill="#FFF" d="M2 2h26v26h-2.89v5.78L16.44 28H2V2Z"/><g><mask id="a"><path fill="#fff" d="M2 2h26v26h-2.89v5.78L16.44 28H2V2Z"/></mask><use xlink:href="#c" stroke-linecap="square" stroke-miterlimit="3" stroke-width="6" mask="url(#a)"/><use xlink:href="#c" stroke-linecap="round" stroke-linejoin="round" stroke-miterlimit="3" stroke-width=".5"/></g><path fill="#333" d="M16.44 11.51V7.78h-2.88v3.73L10.9 8.87l-2.04 2.04 2.64 2.65H7.78v2.88h3.73L8.87 19.1l2.04 2.04 2.65-2.64v3.73h2.88V18.5l2.65 2.64 2.04-2.04-2.64-2.65h3.73v-2.88H18.5l2.64-2.65-2.04-2.04-2.65 2.64Z"/><mask id="d" width="400%" height="400%" x="-200%" y="-200%"><rect width="400%" height="400%" x="-200%" y="-200%" fill="#fff"/><path d="M42.39 18.15h4.57q-.1 2.03-1.08 3.58-.98 1.56-2.75 2.41-1.78.86-4.05.86-3.76 0-5.92-2.5T31 15.45v-.96q0-2.86.98-5 .97-2.15 2.8-3.32Q36.62 5 39.02 5q3.47 0 5.58 1.86Q46.7 8.73 47 12h-4.6q-.05-1.78-.87-2.55-.83-.78-2.52-.78-1.71 0-2.5 1.31-.8 1.31-.85 4.18v1.38q0 3.11.77 4.45.77 1.34 2.64 1.34 1.58 0 2.42-.77.84-.76.89-2.41Zm20.19 6.58-3.37-6.86h-2.48v6.86h-4.6V5.28h7.5q3.4 0 5.3 1.54 1.91 1.53 1.91 4.34 0 2.03-.8 3.37-.8 1.33-2.52 2.16l3.98 7.84v.2h-4.92ZM56.73 8.9v5.34h2.9q1.31 0 1.97-.7.66-.7.66-1.95 0-1.26-.66-1.97-.67-.72-1.97-.72h-2.9Zm16.07 6.7 2.99-3.64-4.27-1.2.85-2.52 4.18 1.75-.33-4.7h2.8l-.34 4.8 4.06-1.72.85 2.55-4.32 1.2 2.87 3.54-2.27 1.58-2.4-3.93-2.4 3.8-2.27-1.51ZM104 5.29v19.44h-4.57l-6.75-12.1v12.1h-4.6V5.28h4.6l6.74 12.1V5.29H104Z"/></mask><path fill="#FFF" d="M42.39 18.15h4.57q-.1 2.03-1.08 3.58-.98 1.56-2.75 2.41-1.78.86-4.05.86-3.76 0-5.92-2.5T31 15.45v-.96q0-2.86.98-5 .97-2.15 2.8-3.32Q36.62 5 39.02 5q3.47 0 5.58 1.86Q46.7 8.73 47 12h-4.6q-.05-1.78-.87-2.55-.83-.78-2.52-.78-1.71 0-2.5 1.31-.8 1.31-.85 4.18v1.38q0 3.11.77 4.45.77 1.34 2.64 1.34 1.58 0 2.42-.77.84-.76.89-2.41Zm20.19 6.58-3.37-6.86h-2.48v6.86h-4.6V5.28h7.5q3.4 0 5.3 1.54 1.91 1.53 1.91 4.34 0 2.03-.8 3.37-.8 1.33-2.52 2.16l3.98 7.84v.2h-4.92ZM56.73 8.9v5.34h2.9q1.31 0 1.97-.7.66-.7.66-1.95 0-1.26-.66-1.97-.67-.72-1.97-.72h-2.9Zm16.07 6.7 2.99-3.64-4.27-1.2.85-2.52 4.18 1.75-.33-4.7h2.8l-.34 4.8 4.06-1.72.85 2.55-4.32 1.2 2.87 3.54-2.27 1.58-2.4-3.93-2.4 3.8-2.27-1.51ZM104 5.29v19.44h-4.57l-6.75-12.1v12.1h-4.6V5.28h4.6l6.74 12.1V5.29H104Z"/><path fill="#FFF" stroke="#FFF" stroke-linecap="round" stroke-linejoin="round" stroke-miterlimit="3" stroke-width="4" d="M42.39 18.15h4.57q-.1 2.03-1.08 3.58h0q-.98 1.56-2.75 2.41h0q-1.78.86-4.05.86h0q-3.76 0-5.92-2.5h0Q31 20 31 15.45h0v-.96h0q0-2.86.98-5h0q.97-2.15 2.8-3.32h0Q36.62 5 39.02 5h0q3.47 0 5.58 1.86h0Q46.7 8.73 47 12h0-4.59 0q-.05-1.78-.87-2.55h0q-.83-.78-2.52-.78h0q-1.71 0-2.5 1.31h0q-.8 1.31-.85 4.18h0v1.38h0q0 3.11.77 4.45h0q.77 1.34 2.64 1.34h0q1.58 0 2.42-.77h0q.84-.76.89-2.41h0Zm20.19 6.58-3.37-6.86h-2.48v6.86h-4.6V5.28h7.5q3.4 0 5.3 1.54h0q1.91 1.53 1.91 4.34h0q0 2.03-.8 3.37h0q-.8 1.33-2.52 2.16h0l3.98 7.84v.2h-4.92ZM56.73 8.9v5.34h2.9q1.31 0 1.97-.7h0q.66-.7.66-1.95h0q0-1.26-.66-1.97h0q-.67-.72-1.97-.72h0-2.9Zm16.07 6.7 2.99-3.64-4.27-1.2.85-2.52 4.18 1.75-.33-4.7h2.8l-.34 4.8 4.06-1.72.85 2.55-4.32 1.2 2.87 3.54-2.27 1.58-2.4-3.93-2.4 3.8-2.27-1.51ZM104 5.29v19.44h-4.57l-6.75-12.1v12.1h-4.6V5.28h4.6l6.74 12.1V5.29H104Z" mask="url(#d)"/><path fill="#333" d="M42.39 18.15h4.57q-.1 2.03-1.08 3.58-.98 1.56-2.75 2.41-1.78.86-4.05.86-3.76 0-5.92-2.5T31 15.45v-.96q0-2.86.98-5 .97-2.15 2.8-3.32Q36.62 5 39.02 5q3.47 0 5.58 1.86Q46.7 8.73 47 12h-4.6q-.05-1.78-.87-2.55-.83-.78-2.52-.78-1.71 0-2.5 1.31-.8 1.31-.85 4.18v1.38q0 3.11.77 4.45.77 1.34 2.64 1.34 1.58 0 2.42-.77.84-.76.89-2.41Zm20.19 6.58-3.37-6.86h-2.48v6.86h-4.6V5.28h7.5q3.4 0 5.3 1.54 1.91 1.53 1.91 4.34 0 2.03-.8 3.37-.8 1.33-2.52 2.16l3.98 7.84v.2h-4.92ZM56.73 8.9v5.34h2.9q1.31 0 1.97-.7.66-.7.66-1.95 0-1.26-.66-1.97-.67-.72-1.97-.72h-2.9Zm16.07 6.7 2.99-3.64-4.27-1.2.85-2.52 4.18 1.75-.33-4.7h2.8l-.34 4.8 4.06-1.72.85 2.55-4.32 1.2 2.87 3.54-2.27 1.58-2.4-3.93-2.4 3.8-2.27-1.51ZM104 5.29v19.44h-4.57l-6.75-12.1v12.1h-4.6V5.28h4.6l6.74 12.1V5.29H104Z"/></g></svg>
