<svg xmlns="http://www.w3.org/2000/svg" style="isolation:isolate" viewBox="0 0 102 34"><defs><clipPath id="a"><path d="M0 0h102v34H0z"/></clipPath></defs><g clip-path="url(#a)"><path fill="none" d="M0 0h102v34H0z"/><linearGradient id="b" x1=".5" y1="0" x2=".5" y2="1"><stop offset="0%" stop-color="#2b7"/><stop offset="99.17%" stop-color="#177"/></linearGradient><path d="M39 27v6l6-6m7 6v-6l6 6v-6m12 0v6l3-3v3l3-3v-3m-27 6v-6l-6 6h3m37 0v-6l-6 6h3m21 0h-6v-6h6m-15 6v-6h6v3h-3l3 3m-25-6h-6v6h6v-3h-3m34 0h3" fill="none" stroke-width="2" stroke="url(#b)" stroke-linejoin="round" stroke-linecap="round"/><path d="M30.5 27.5v3h1a1 1 0 001-1h0a1 1 0 00-1-1h-1m4 4h0a1 1 0 001-1v-3 2h-1a1 1 0 01-1-1v-1" fill="none" stroke="#666" stroke-linejoin="round" stroke-linecap="round" stroke-miterlimit="3"/><g><path d="M0 0h26v26h-2.89v5.78L14.44 26H0V0z" fill="none"/><path d="M0 0h26v26h-2.89v5.78L14.44 26H0V0z" fill="#FFF"/><g style="isolation:isolate"><mask id="c"><path d="M0 0h26v26h-2.89v5.78L14.44 26H0V0z" fill="#fff"/></mask><path d="M0 0h26v26h-2.89v5.78L14.44 26H0V0z" fill="none" mask="url(#c)" stroke-width="6" stroke="#333" stroke-linecap="square" stroke-miterlimit="3"/><path d="M0 0h26v26h-2.89v5.78L14.44 26H0V0z" fill="none" stroke-width=".5" stroke="#333" stroke-linejoin="round" stroke-linecap="round" stroke-miterlimit="3"/></g><path d="M14.44 9.51V5.78h-2.88V9.5L8.9 6.87 6.87 8.91l2.64 2.65H5.78v2.88H9.5L6.87 17.1l2.04 2.04 2.65-2.64v3.73h2.88V16.5l2.65 2.64 2.04-2.04-2.64-2.65h3.73v-2.88H16.5l2.64-2.65-2.04-2.04-2.65 2.64z" fill="#333"/></g><path d="M40.39 16.15h4.57q-.1 2.03-1.08 3.58-.98 1.56-2.75 2.41-1.78.86-4.05.86-3.76 0-5.92-2.5T29 13.45v-.96q0-2.86.98-5 .97-2.15 2.8-3.32Q34.62 3 37.02 3q3.47 0 5.58 1.86Q44.7 6.73 45 10H40.4q-.05-1.78-.87-2.55-.83-.78-2.52-.78-1.71 0-2.5 1.31-.8 1.31-.85 4.18v1.38q0 3.11.77 4.45.77 1.34 2.64 1.34 1.58 0 2.42-.77.84-.76.89-2.41zm20.19 6.58l-3.37-6.86h-2.48v6.86h-4.6V3.28h7.5q3.4 0 5.3 1.54 1.91 1.53 1.91 4.34 0 2.03-.8 3.37-.8 1.33-2.52 2.16l3.98 7.84v.2h-4.92zM54.73 6.9v5.34h2.9q1.31 0 1.97-.7.66-.7.66-1.95 0-1.26-.66-1.97-.67-.72-1.97-.72h-2.9zM70.8 13.6l2.99-3.64-4.27-1.2.85-2.52 4.18 1.75-.33-4.7h2.8l-.34 4.8 4.06-1.72.85 2.55-4.32 1.2 2.87 3.54-2.27 1.58-2.4-3.93-2.4 3.8-2.27-1.51zM102 3.29v19.44h-4.57l-6.75-12.1v12.1h-4.6V3.28h4.6l6.74 12.1V3.29H102z" fill="#333"/></g></svg>