<svg xmlns="http://www.w3.org/2000/svg" style="isolation:isolate" viewBox="0 0 105 35" fill="none"><g stroke-linecap="round" stroke-linejoin="round"><path stroke="#0A8" stroke-width="2" d="M42 28v6l6-6m7 6v-6l6 6v-6m12 0v6l3-3v3l3-3v-3m-27 6v-6l-6 6h3m37 0v-6l-6 6h3m21 0h-6v-6h6m-15 6v-6h6v3h-3l3 3m-25-6h-6v6h6v-3h-3m34 0h3"/><path stroke="#666" stroke-miterlimit="3" d="M33.5 28.5v3h1a1 1 0 0 0 1-1h0a1 1 0 0 0-1-1h-1m4 4h0a1 1 0 0 0 1-1v-3 2h-1a1 1 0 0 1-1-1v-1"/><path stroke="#666" stroke-width="6" d="m102 2.98.1 18.02L84 3.05V21M21 3.05H3v17.93h18m35.96-18H75V21H56.96L57 2.98M30 21V3h18v9h-9l9 9"/></g></svg>